<?xml version="1.0" encoding="utf-8"?>
<!-- Generator: Adobe Illustrator 25.4.1, SVG Export Plug-In . SVG Version: 6.00 Build 0)  -->
<svg version="1.1" id="Camada_1" xmlns="http://www.w3.org/2000/svg" xmlns:xlink="http://www.w3.org/1999/xlink" x="0px" y="0px"
	 viewBox="0 0 472 167" style="enable-background:new 0 0 472 167;" xml:space="preserve">
<style type="text/css">
	.st0{fill:#696968;}
	.st1{fill:#1D223E;}
	.st2{fill:#C00D60;}
	.st3{fill:#3F2C85;}
	.st4{fill:#EC6A23;}
	.st5{fill:#584796;}
</style>
<g>
	<g>
		<path class="st0" d="M246.5,148.5l-1-1c-0.5,0.5-1.2,0.8-1.9,0.8c-1.9,0-2.6-1.3-2.6-2.6c0-1.3,0.8-2.6,2.6-2.6
			c0.7,0,1.3,0.2,1.8,0.7l1-0.9c-0.8-0.8-1.7-1.2-2.8-1.2c-2.7,0-4,2-4,4c0,2,1.2,3.9,4,3.9C244.7,149.6,245.7,149.3,246.5,148.5"/>
		<path class="st0" d="M255.1,145.7c0-2-1.3-4-3.9-4c-2.6,0-3.9,2-3.9,4c0,2,1.2,3.9,3.9,3.9S255.1,147.7,255.1,145.7 M248.7,145.8
			c0-1.3,0.7-2.7,2.5-2.7c1.8,0,2.5,1.4,2.5,2.7c0,1.2-0.7,2.6-2.5,2.6C249.4,148.3,248.8,147,248.7,145.8"/>
		<rect x="256.3" y="145.3" class="st0" width="4" height="1.2"/>
		<path class="st0" d="M268.4,148.5l-1-1c-0.5,0.5-1.2,0.8-1.9,0.8c-1.9,0-2.6-1.3-2.6-2.6c0-1.3,0.8-2.6,2.6-2.6
			c0.7,0,1.3,0.2,1.8,0.7l1-0.9c-0.8-0.8-1.8-1.2-2.8-1.2c-2.7,0-4,2-4,4c0,2,1.2,3.9,4,3.9C266.6,149.6,267.6,149.3,268.4,148.5"/>
		<path class="st0" d="M276.3,149.5L276.3,149.5l-2.3-2.7c1.4-0.3,1.9-1.3,1.9-2.4c0-1.3-0.9-2.5-2.7-2.5c-1.2,0-2.4,0-3.6,0v7.6
			h1.4v-2.5h1.4l2.2,2.5H276.3z M271,143.2h2.2c0.9,0,1.3,0.6,1.3,1.2c0,0.6-0.4,1.2-1.3,1.2H271V143.2z"/>
		<polygon class="st0" points="282.8,149.5 282.8,148.1 278.6,148.1 278.6,146.4 282.7,146.4 282.7,145 278.6,145 278.6,143.3 
			282.8,143.3 282.8,141.9 277.2,141.9 277.2,149.5 		"/>
		<path class="st0" d="M289.6,148l0.6,1.4h1.6l-3.4-7.6h-1.6l-3.4,7.6h1.5l0.6-1.4H289.6z M287.7,143.5l1.4,3.2h-2.8L287.7,143.5z"
			/>
		<polygon class="st0" points="293.5,143.2 293.5,149.5 294.9,149.5 294.9,143.2 297.3,143.2 297.3,141.9 291.1,141.9 291.1,143.2 
					"/>
		<rect x="298.6" y="141.9" class="st0" width="1.4" height="7.6"/>
		<polygon class="st0" points="306.6,141.9 306.6,146.6 302.9,141.9 301.8,141.9 301.8,149.5 303.2,149.5 303.2,144.4 307.2,149.5 
			307.2,149.5 308,149.5 308,141.9 		"/>
		<path class="st0" d="M315.3,143.8l0.9-0.9c-0.8-0.8-1.8-1.2-2.8-1.2c-2.7,0-4,2-4,4.1c0,2,1.2,3.9,4,3.9c1.3,0,2.3-0.5,3-1.4v-3.2
			h-3.2v1.3h1.9v1.3c-0.6,0.5-1.1,0.6-1.7,0.6c-1.9,0-2.6-1.3-2.6-2.5c0-1.6,1-2.8,2.6-2.8C314,143,314.8,143.3,315.3,143.8"/>
		<polygon class="st0" points="295.3,160.3 298,152.7 296.4,152.7 294.7,158.2 292.8,152.7 291.9,152.7 290,158.2 288.2,152.7 
			286.6,152.7 289.4,160.3 290.6,160.3 291.6,157.9 292.3,155.5 293.1,157.9 294.1,160.3 		"/>
		<rect x="299.2" y="152.7" class="st0" width="1.4" height="7.6"/>
		<polygon class="st0" points="304.6,154 304.6,160.3 306.1,160.3 306.1,154 308.5,154 308.5,152.7 302.2,152.7 302.2,154 		"/>
		<polygon class="st0" points="314.8,160.3 316.2,160.3 316.2,152.7 314.8,152.7 314.8,155.9 311.1,155.9 311.1,152.7 309.7,152.7 
			309.7,160.3 311.1,160.3 311.1,157.2 314.8,157.2 		"/>
		<path class="st0" d="M376.6,152.9c0.1-1.9-0.1-3.7-0.7-5.4c-1.2-3.2-3.4-5.2-6.8-5.6c-3.3-0.5-6.3,0.4-8.4,3.1
			c-2.1,2.7-2.5,5.9-1.7,9.2c0.6,2.7,2.2,4.7,4.8,5.8c2.9,1.3,5.8,1.2,8.7,0.1c1.4-0.5,2.6-1.5,3.6-2.7c-1.2-0.9-2.4-1.8-3.5-2.7
			c-1.7,1.9-3.7,2.5-6.1,1.6c-1.5-0.5-2-1.8-2.3-3.4H376.6 M364.2,149.5c0.3-2.1,1.7-3.5,3.6-3.5c1.7,0.1,3.2,1.6,3.3,3.5H364.2"/>
		<path class="st0" d="M401.2,149.4H400c-1.9,0-3.9,0-5.8,0.6c-2.5,0.7-3.9,2.5-4,5c-0.1,2.5,1.2,4.7,3.6,5.5
			c2.8,0.9,5.4,0.7,7.5-1.8v1.7h5.3v-0.7c0-2.4,0-4.7,0-7.1c0-1.4,0-2.8-0.1-4.3c-0.2-2.7-1.4-4.8-4-5.7c-2.8-1.1-5.7-1-8.5,0.2
			c-1.2,0.5-2.2,1.2-3,2.2c1.1,1,2.1,2,3.2,3c-0.1,0,0,0,0,0c0.1-0.1,0.2-0.2,0.3-0.3c1-0.9,2.1-1.4,3.5-1.5
			C400.1,146.2,401.4,147.4,401.2,149.4 M401.3,152.8c0.2,1.5-0.2,2.6-1.2,3.5c-1.1,0.9-2.3,1-3.6,0.5c-0.7-0.3-1-0.9-1.1-1.6
			c-0.1-0.7,0.2-1.3,0.8-1.7c0.4-0.2,0.9-0.4,1.3-0.5C398.7,152.9,400,152.9,401.3,152.8"/>
		<path class="st0" d="M415.8,160.4v-0.7c0-3.2,0-6.4,0-9.6c0-1.2,0.4-2.2,1.3-3c0.9-0.8,2-0.9,3.1-0.5c1.1,0.4,1.4,1.3,1.5,2.3
			c0,0.3,0.1,0.7,0.1,1c0,3.3,0,6.5,0,9.8v0.7h5.3v-0.7c0-3.7,0-7.3,0-11c0-0.6,0-1.1-0.1-1.7c-0.3-2.9-2.3-4.9-5.3-5.2
			c-2.3-0.2-4.5,0.3-6.1,2.4v-2h-5.2v18.1H415.8z"/>
		<path class="st0" d="M343.9,144.5c-0.9-1.1-2.8-2.1-4.7-2.5c-2.8-0.6-5.6-0.6-8.2,0.8c-1.9,1-2.8,2.6-2.8,4.7
			c0,2.1,0.9,3.8,2.8,4.6c1.3,0.6,2.6,0.9,4,1.2c1,0.3,2.1,0.4,3.1,0.7c0.5,0.1,0.9,0.5,0.9,1.1c0,0.6-0.4,1-0.9,1.2
			c-0.3,0.1-0.6,0.2-1,0.2c-1.3,0.1-2.7,0.1-4-0.4c-1.1-0.4-2-1-3.1-1.6c-0.9,1-1.9,2-2.9,3.1c0.2,0.2,0.4,0.4,0.6,0.5
			c2,1.7,4.4,2.5,7,2.7c2.2,0.2,4.3,0,6.3-1c2.2-1.1,3.2-2.9,3.1-5.4c-0.1-2.4-1.3-3.9-3.5-4.7c-1.5-0.5-3-0.7-4.6-1
			c-0.7-0.2-1.5-0.3-2.1-0.6c-0.3-0.1-0.6-0.6-0.6-0.9c0-0.3,0.3-0.8,0.6-0.9c0.4-0.2,1-0.3,1.5-0.4c2-0.1,3.9,0.3,5.6,1.7
			C342.1,146.6,343,145.6,343.9,144.5"/>
		<path class="st0" d="M389.7,135.8c-1.7-0.5-3.3-0.7-5-0.4c-3.3,0.6-5,2.5-5,5.9c0,0.3,0,14.5,0,19.1h5.3v-13.8h4.3v-4.3h-4.2
			c-0.3-2.1,0.5-2.9,2.5-2.7c0.4,0,0.8,0.1,1.2,0.2C389.1,138.3,389.4,137.1,389.7,135.8"/>
		<rect x="431.1" y="142.3" class="st0" width="5.2" height="18.1"/>
		<path class="st0" d="M445.5,160.4v-0.7c0-3.2,0-6.4,0-9.6c0-1.2,0.4-2.2,1.3-3c0.9-0.8,2-0.9,3.1-0.5c1.1,0.4,1.4,1.3,1.5,2.3
			c0,0.3,0.1,0.7,0.1,1c0,3.3,0,6.5,0,9.8v0.7h5.3v-0.7c0-3.7,0-7.3,0-11c0-0.6,0-1.1-0.1-1.7c-0.3-2.9-2.3-4.9-5.3-5.2
			c-2.3-0.2-4.5,0.3-6.1,2.4v-2h-5.2v18.1H445.5z"/>
		<rect x="460.8" y="142.3" class="st0" width="5.2" height="18.1"/>
		<path class="st0" d="M356.3,156.1c-0.5,0.1-0.8,0.2-1.2,0.2c-2,0.3-2.6-0.3-2.7-2.3c0-0.1,0-0.1,0-0.2c0-2.2,0-4.5,0-6.7
			c0-0.2,0-0.4,0-0.6h4.3v-4.3h-4.4v-7.1c-1.7,0.7-3,1.1-4.4,1.5c-0.6,0.2-1,0.7-1,1.3c0,2.8,0,9.1,0,9.3c0,2.8,0,5.5,0,8.3
			c0,1.9,0.7,3.6,2.5,4.5c0.6,0.3,1.4,0.5,2.1,0.6c1.9,0.3,3.8,0,5.7-0.5C357,158.8,356.7,157.4,356.3,156.1"/>
	</g>
	<path class="st1" d="M133.8,53.4c0,17.3,11.9,27.9,27.3,27.9c15.4,0,27.3-10.6,27.3-27.9c0-17.3-11.9-27.9-27.3-27.9
		C145.7,25.5,133.8,36.1,133.8,53.4 M172.6,53.4c0,9.1-4.5,14.6-11.5,14.6c-7.1,0-11.5-5.5-11.5-14.6c0-9.1,4.5-14.6,11.5-14.6
		C168.2,38.8,172.6,44.3,172.6,53.4"/>
	<path class="st1" d="M233.5,26.5c-2.8-0.7-4.9-0.9-6.5-0.9c-7.5,0-12.5,4.2-14.5,8.7v-7.5h-15.2v53.1h15.5V54.8
		c0-9.2,5.1-15.2,12.6-15.2c1.9,0,4.3,0.2,5.6,0.5L233.5,26.5"/>
	<path class="st1" d="M293.6,53.5c0-17-9-28-22.2-28c-7,0-12.2,2.9-15.7,7.2V12h-15.5v68h15.2v-6.2c3.5,4.5,8.7,7.6,15.8,7.6
		C284.3,81.3,293.6,70.1,293.6,53.5 M277.8,53.5c0,9.4-4.7,14.6-11.1,14.6c-6.6,0-11.4-5.4-11.4-14.6c0-9.3,4.8-14.7,11.4-14.7
		C273.1,38.7,277.8,44,277.8,53.5"/>
	<rect x="302.5" y="26.9" class="st1" width="15.5" height="53.1"/>
	<path class="st1" d="M410.7,47.3c0-14.6-8.8-21.7-23.6-21.7c-9.3,0-17,3.4-21.7,9l9.1,9.2c2.8-3.2,6.8-5.4,11.5-5.4
		c5.7,0,9.2,2.8,9.2,8.8v0.6h-7.6c-16.1,0-24.4,5.6-24.4,16.8c0,10.5,8.1,16.7,17.8,16.7c7.5,0,12.3-3,14.7-7.3v5.9h15.2V47.3
		 M395.1,57.8v2.6c0,4.7-4.2,9.8-10.2,9.8c-4.4,0-7.2-2.2-7.2-6.2c0-4.5,4.3-6.3,11.1-6.3H395.1z"/>
	<rect x="421.9" y="12" class="st1" width="15.5" height="68"/>
	<rect x="449.1" y="12" class="st1" width="15.5" height="68"/>
	<path class="st1" d="M355.6,67.5c-1.3,0.2-2.4,0.5-3.6,0.6c-5.8,0.8-7.8-0.9-7.9-6.7c0-0.2,0-0.4,0-0.5c0-6.5,0-13.1,0-19.6
		c0-0.5,0.1-1,0.1-1.8h12.6V26.9h-12.8V6c-5,1.9-8.6,3.1-12.8,4.5c-1.7,0.6-2.8,2.1-2.8,3.9c0,8.2,0,26.7,0,27.3
		c0,8.1-0.1,16.2,0,24.3c0.1,5.7,2,10.6,7.4,13.2c1.9,0.9,4.1,1.5,6.2,1.8c5.6,0.8,11.1,0.1,16.6-1.6
		C357.6,75.4,356.6,71.5,355.6,67.5"/>
	<g>
		<path class="st1" d="M264.1,109.7c0,8.5-5,14.1-11.9,14.1c-5.4,0-9-2.9-10.6-6.4v15.4h-1.9V96h1.9v6c1.6-3.4,5.2-6.4,10.6-6.4
			C259.1,95.6,264.1,101.2,264.1,109.7z M262.1,109.7c0-7.7-4.4-12.3-10.3-12.3c-6.2,0-10.4,4.9-10.4,12.3c0,7.4,4.2,12.3,10.4,12.3
			C257.7,122,262.1,117.4,262.1,109.7z"/>
		<path class="st1" d="M291.5,105.9v17.6h-1.9v-5.1c-1.1,2.5-4.8,5.5-9.9,5.5c-5.7,0-9.4-3.1-9.4-7.9c0-5.7,4.6-8.2,12.5-8.2h6.8
			v-1.6c0-5.7-3.3-8.7-8.2-8.7c-3.9,0-6.4,1.6-8.1,4l-1.5-1.1c2-2.8,5-4.7,9.6-4.7C287.2,95.6,291.5,99,291.5,105.9z M289.6,113.5
			v-4.1h-6.3c-6.8,0-11.1,1.7-11.1,6.5c0,3.8,2.8,6.2,7.5,6.2C285.6,122.1,289.6,117.5,289.6,113.5z"/>
		<path class="st1" d="M319.7,96l-13.5,33.6c-1,2.6-2.4,3.7-4.6,3.7c-0.9,0-2-0.2-2.9-0.5l0.5-1.6c0.8,0.3,1.5,0.5,2.3,0.5
			c1.5,0,2.3-0.8,3.1-2.7l3-7.4L296.9,96h2.1l9.5,23.3l9.1-23.3H319.7z"/>
		<path class="st1" d="M362.4,104.7v18.8h-1.9v-18.3c0-5.1-2.4-7.8-6.8-7.8c-5.7,0-8.7,4.9-8.7,8.9v17.3h-1.9v-18.3
			c0-5.1-2.4-7.8-6.8-7.8c-5.7,0-8.7,4.9-8.7,8.9v17.3h-1.9V96h1.9v4.9c1-2,3.6-5.3,8.9-5.3c4.3,0,7.1,2.1,8.1,5.9
			c1.1-2.4,3.7-5.9,9.3-5.9C359.3,95.6,362.4,98.8,362.4,104.7z"/>
		<path class="st1" d="M392.8,109.6v0.5h-22.3c0.1,7.1,4.1,11.9,10.7,11.9c3.6,0,7.1-1.4,9-5l1.6,0.9c-1.9,3.8-5.9,6-10.5,6
			c-7.9,0-12.7-5.6-12.7-14.1c0-8.6,5-14.1,12.2-14.1C387.9,95.6,392.8,101.2,392.8,109.6z M370.6,108.4h20.2
			c-0.4-6.7-4.4-11-10.1-11C375.2,97.4,371.1,101.6,370.6,108.4z"/>
		<path class="st1" d="M420,104.5v19h-1.9v-18.6c0-4.8-3-7.5-7.7-7.5c-6.3,0-9.6,4.8-9.6,8.9v17.2H399V96h1.9v4.8
			c1.6-2.7,4.8-5.2,9.9-5.2C416.4,95.6,420,98.9,420,104.5z"/>
		<path class="st1" d="M439.4,123.2c-1.3,0.4-2.3,0.6-3.5,0.6c-3.7,0-5.7-2-5.7-6.8V97.7h-4V96h4v-7.4h1.9V96h6.7v1.7H432v19
			c0,3.7,1.2,5.4,3.9,5.4c0.9,0,1.6-0.1,3-0.5L439.4,123.2z"/>
		<path class="st1" d="M443.8,117.8l1.7-0.9c1.4,3.1,4.9,5,9.3,5c4.7,0,7.8-2.2,7.8-5.8c0-3.7-3-5-8.4-5.8c-5.7-0.9-9.3-3.1-9.3-7.7
			c0-4.5,3.9-7.1,9.3-7.1c4.5,0,7.8,1.9,9.7,5.2l-1.7,0.9c-1.5-2.8-4.3-4.3-8-4.3c-4.3,0-7.4,2-7.4,5.3c0,3.2,2.7,5,8,5.9
			c5.9,1,9.8,2.5,9.8,7.6c0,4.7-3.9,7.7-9.8,7.7C449.3,123.8,445.4,121.4,443.8,117.8z"/>
	</g>
	<g>
		<path class="st2" d="M41.3,69.8c-5.7-5.6-9.2-13.4-9.2-22C32.1,30.7,46,16.9,63,16.9c8.5,0,16.2,3.4,21.7,8.9"/>
		<path class="st3" d="M86.9,28.1c5.7,5.6,9.2,13.4,9.2,22c0,17.1-13.8,30.9-30.9,30.9c-8.5,0-16.2-3.4-21.7-8.9"/>
		<path class="st4" d="M10.6,78.8L10.6,78.8c-6.1-6-6.1-15.8-0.1-21.9l28.5-28.8C45,22,54.8,22,60.9,28l11,10.9L32.5,78.7
			C26.5,84.8,16.7,84.8,10.6,78.8"/>
		<path class="st5" d="M66.9,70.3l-11-10.9l39.4-39.8c6-6.1,15.8-6.1,21.9-0.1c6.1,6,6.1,15.8,0.1,21.9L88.9,70.2
			C82.8,76.3,73,76.4,66.9,70.3"/>
	</g>
</g>
</svg>
